HIERARCHY
ROOT Hips
{
	OFFSET 0.000000 0.000000 0.000000
	CHANNELS 6 Xposition Yposition Zposition Xrotation Yrotation Zrotation
	JOINT LeftUpLeg_virtual
	{
		OFFSET 0.000000 0.000000 0.000000
		CHANNELS 3 Xrotation Yrotation Zrotation
		JOINT LeftUpLeg
		{
			OFFSET 13.026900 -6.336304 -1.092800
			CHANNELS 3 Xrotation Yrotation Zrotation
			JOINT LeftLeg
			{
				OFFSET 0.524474 -46.096886 9.782700
				CHANNELS 3 Xrotation Yrotation Zrotation
				JOINT LeftFoot
				{
					OFFSET -0.524474 -53.427422 -12.948200
					CHANNELS 3 Xrotation Yrotation Zrotation
					JOINT LeftToeBase
					{
						OFFSET 0.192200 -14.009700 16.364100
						CHANNELS 3 Xrotation Yrotation Zrotation
						JOINT LeftToe_End
						{
							OFFSET -1.784700 -0.561700 9.474800
							CHANNELS 3 Xrotation Yrotation Zrotation
							End Site
							{
								OFFSET 0 0 0
							}
						}
					}
				}
			}
		}
	}
	JOINT RightUpLeg_virtual
	{
		OFFSET 0.000000 0.000000 0.000000
		CHANNELS 3 Xrotation Yrotation Zrotation
		JOINT RightUpLeg
		{
			OFFSET -12.883000 -6.336304 -1.092800
			CHANNELS 3 Xrotation Yrotation Zrotation
			JOINT RightLeg
			{
				OFFSET -0.524587 -46.096825 9.782800
				CHANNELS 3 Xrotation Yrotation Zrotation
				JOINT RightFoot
				{
					OFFSET 0.524587 -53.427383 -12.948300
					CHANNELS 3 Xrotation Yrotation Zrotation
					JOINT RightToeBase
					{
						OFFSET -0.192200 -14.009700 16.364100
						CHANNELS 3 Xrotation Yrotation Zrotation
						JOINT RightToe_End
						{
							OFFSET 1.784700 -0.561700 9.474800
							CHANNELS 3 Xrotation Yrotation Zrotation
							End Site
							{
								OFFSET 0 0 0
							}
						}
					}
				}
			}
		}
	}
	JOINT Spine_virtual
	{
		OFFSET 0.000000 0.000000 0.000000
		CHANNELS 3 Xrotation Yrotation Zrotation
		JOINT Spine
		{
			OFFSET 0.072000 7.257294 -0.789700
			CHANNELS 3 Xrotation Yrotation Zrotation
			JOINT Spine1
			{
				OFFSET 0.000000 12.508769 -0.658067
				CHANNELS 3 Xrotation Yrotation Zrotation
				JOINT Spine1_split
				{
					OFFSET 0.000000 12.508769 -0.658067
					CHANNELS 3 Xrotation Yrotation Zrotation
					JOINT Spine2
					{
						OFFSET 0.000000 12.508769 -0.658067
						CHANNELS 3 Xrotation Yrotation Zrotation
						JOINT Neck_virtual
						{
							OFFSET 0.000000 0.000000 0.000000
							CHANNELS 3 Xrotation Yrotation Zrotation
							JOINT Neck
							{
								OFFSET 0.000000 14.033295 7.520400
								CHANNELS 3 Xrotation Yrotation Zrotation
								JOINT Head
								{
									OFFSET 0.000000 8.198502 5.703100
									CHANNELS 3 Xrotation Yrotation Zrotation
									JOINT HeadTop_End
									{
										OFFSET 0.000000 17.760803 13.332701
										CHANNELS 3 Xrotation Yrotation Zrotation
										End Site
										{
											OFFSET 0 0 0
										}
									}
								}
							}
						}
						JOINT LeftShoulder_virtual
						{
							OFFSET 0.000000 0.000000 0.000000
							CHANNELS 3 Xrotation Yrotation Zrotation
							JOINT LeftShoulder
							{
								OFFSET 6.292450 5.785301 -0.669000
								CHANNELS 3 Xrotation Yrotation Zrotation
								JOINT LeftShoulder_split
								{
									OFFSET 6.292450 5.785301 -0.669000
									CHANNELS 3 Xrotation Yrotation Zrotation
									JOINT LeftArm
									{
										OFFSET 13.907140 -6.093903 1.965100
										CHANNELS 3 Xrotation Yrotation Zrotation
										JOINT LeftForeArm
										{
											OFFSET 34.140198 0.000000 0.000000
											CHANNELS 3 Xrotation Yrotation Zrotation
											JOINT LeftHand
											{
												OFFSET 40.960209 0.000000 0.000000
												CHANNELS 3 Xrotation Yrotation Zrotation
												End Site
												{
													OFFSET 0 0 0
												}
											}
										}
									}
								}
							}
						}
						JOINT RightShoulder_virtual
						{
							OFFSET 0.000000 0.000000 0.000000
							CHANNELS 3 Xrotation Yrotation Zrotation
							JOINT RightShoulder
							{
								OFFSET -6.292450 5.785301 -0.669000
								CHANNELS 3 Xrotation Yrotation Zrotation
								JOINT RightShoulder_split
								{
									OFFSET -6.292450 5.785301 -0.669000
									CHANNELS 3 Xrotation Yrotation Zrotation
									JOINT RightArm
									{
										OFFSET -13.907140 -6.093903 1.965100
										CHANNELS 3 Xrotation Yrotation Zrotation
										JOINT RightForeArm
										{
											OFFSET -34.140198 0.000000 0.000000
											CHANNELS 3 Xrotation Yrotation Zrotation
											JOINT RightHand
											{
												OFFSET -40.960209 0.000000 0.000000
												CHANNELS 3 Xrotation Yrotation Zrotation
												End Site
												{
													OFFSET 0 0 0
												}
											}
										}
									}
								}
							}
						}
					}
				}
			}
		}
	}
}
MOTION
Frames: 5
Frame Time: 0.03333333
-2.505288 110.130630 1.398983 0.000000 0.000000 0.000000 1.542497 2.820034 -3.764331 -26.763948 6.977533 11.831758 42.305341 0.339649 0.750901 -0.370556 -2.302953 -3.028256 -13.056176 -0.670133 -1.034316 0.000000 0.000000 0.000000 3.633660 4.212305 -3.437275 -20.013231 -4.703969 4.288879 25.448750 0.173362 -2.979042 -8.894542 2.975358 0.940302 -1.405940 -0.218181 0.409873 0.000000 0.000000 0.000000 0.612083 0.980744 -3.484924 6.439864 -0.559786 3.814783 2.858867 -1.489895 1.771278 0.917327 -0.473268 0.834860 0.000000 0.000000 0.000000 2.735203 -1.519791 1.403259 -2.218244 4.504605 -0.915994 -1.207995 0.420902 -0.703102 0.000000 0.000000 0.000000 2.845953 -1.781760 1.319091 1.110472 -10.074030 -15.187156 1.446729 2.809079 -3.023611 12.916520 -23.821644 -46.970760 -0.896292 -21.967878 -2.250475 0.000000 0.000000 0.000000 1.572158 -1.450536 2.515145 0.798034 3.162523 16.710369 0.783930 0.351313 -2.750282 7.245465 23.196521 47.755761 -0.488470 34.235271 1.704077 0.000000 0.000000 0.000000 
-0.686981 110.028030 3.211357 0.000000 0.000000 0.000000 1.735610 2.532352 -3.298733 -26.117706 6.241014 12.264398 40.447038 1.031006 0.490265 -1.116479 -1.822565 -2.210990 -11.430220 -0.275733 -1.743483 0.000000 0.000000 0.000000 3.868795 3.959717 -2.959568 -19.693189 -4.387032 3.410560 25.743529 0.329223 -3.004637 -9.078315 2.626732 0.689905 -1.300112 -0.261489 0.398034 0.000000 0.000000 0.000000 0.902470 1.110262 -3.376830 6.377462 -0.090860 3.663382 3.127314 -1.247889 1.632125 0.728290 0.476659 0.731404 0.000000 0.000000 0.000000 2.792190 -1.284276 1.226086 -2.181378 4.002611 -0.379573 -1.608020 0.282240 -0.761827 0.000000 0.000000 0.000000 3.098988 -1.479194 1.240759 1.037093 -9.595602 -15.301470 0.668675 3.662715 -3.670176 13.374072 -22.121366 -47.276063 -0.952893 -21.181050 -2.307353 0.000000 0.000000 0.000000 1.668175 -1.216453 2.264492 0.572080 3.198559 16.372863 1.365432 0.961041 -3.100974 6.556258 23.829193 47.551517 -0.404312 37.656172 1.586818 0.000000 0.000000 0.000000 
2.081299 110.489540 5.807514 0.000000 0.000000 0.000000 1.828546 2.376871 -2.449165 -25.762350 5.625233 13.650669 37.123451 2.469334 0.187601 -0.659596 -0.313017 -2.969562 -8.536734 0.110988 -2.404823 0.000000 0.000000 0.000000 3.780744 4.103715 -2.207141 -18.084580 -3.898609 1.931080 25.403632 0.897021 -3.205590 -9.353714 2.119159 1.090324 -1.480102 -0.250635 0.318600 0.000000 0.000000 0.000000 1.107994 1.538300 -2.833250 6.538827 0.943318 3.200509 3.379807 -0.288818 1.297703 0.755149 0.814341 0.721380 0.000000 0.000000 0.000000 2.886376 -0.337659 0.808113 -1.941868 3.255072 -0.109427 -2.223938 -1.176159 -0.685204 0.000000 0.000000 0.000000 3.251467 -0.482092 0.923311 0.901356 -9.559470 -15.743786 -0.235623 3.903678 -4.017840 12.740598 -19.300750 -47.732186 -1.049505 -20.835383 -2.302898 0.000000 0.000000 0.000000 1.795806 -0.250647 1.787226 0.306367 3.874280 16.061576 2.104131 0.824297 -3.211972 7.130871 24.030525 46.586378 -0.231928 43.938098 1.275268 0.000000 0.000000 0.000000 
5.414222 111.238167 8.767155 0.000000 0.000000 0.000000 1.766265 2.378867 -1.463586 -25.865230 5.002778 15.682309 32.867666 4.061678 0.075196 1.442253 1.331174 -5.651395 -5.634697 0.384335 -2.744061 0.000000 0.000000 0.000000 3.392840 4.351129 -1.351937 -15.392427 -3.411364 0.008785 24.296817 1.882739 -3.460692 -9.564552 1.690321 2.151996 -1.769011 -0.193081 0.174792 0.000000 0.000000 0.000000 1.066091 1.934317 -2.033807 6.823382 2.372617 2.566901 3.628292 1.185505 0.838802 1.080160 0.429420 0.722999 0.000000 0.000000 0.000000 3.043572 1.170751 0.260161 -1.596476 2.374425 -0.088135 -2.972549 -3.756734 -0.492584 0.000000 0.000000 0.000000 3.367662 1.050545 0.446381 0.722337 -9.992208 -16.486089 -0.813218 3.566841 -4.179251 11.150179 -15.741479 -48.226449 -1.107936 -20.911381 -2.212809 0.000000 0.000000 0.000000 1.967049 1.275933 1.184846 0.005632 5.129316 15.786046 2.738290 0.127832 -2.954661 8.676501 23.486661 45.047048 0.097533 51.669104 0.715965 0.000000 0.000000 0.000000 
8.912709 112.060562 11.968777 0.000000 0.000000 0.000000 1.516657 2.281079 -0.573216 -26.503132 4.583989 18.087939 28.475026 5.502434 0.146896 4.762322 2.159042 -9.759514 -3.800840 0.502317 -2.531573 0.000000 0.000000 0.000000 2.825683 4.435362 -0.614041 -12.023874 -3.189433 -2.121161 22.426185 3.181053 -3.633850 -9.686429 1.513305 3.673413 -1.919406 -0.107652 0.018626 0.000000 0.000000 0.000000 0.962222 2.221128 -1.272172 7.153816 3.987886 1.937355 3.867026 2.955561 0.337633 1.386897 -0.114415 0.786367 0.000000 0.000000 0.000000 3.262927 3.002142 -0.288052 -1.293029 1.445420 -0.273147 -3.725304 -7.016056 -0.220029 0.000000 0.000000 0.000000 3.466136 2.897154 -0.077809 0.511564 -10.804547 -17.517770 -0.881437 3.048180 -4.197839 8.954264 -11.702735 -48.731231 -1.043233 -21.265507 -2.012091 0.000000 0.000000 0.000000 2.171460 3.125539 0.585779 -0.295648 6.882800 15.571243 3.151934 -0.536714 -2.683621 10.409335 22.099492 43.236142 0.559493 59.609492 -0.036108 0.000000 0.000000 0.000000 
